<svg xmlns="http://www.w3.org/2000/svg" width="57.284" height="15.513" viewBox="0 0 57.284 15.513">
  <g id="Activ5" transform="translate(-78.192 -204.74)">
    <path id="Path_9" data-name="Path 9" d="M413.62,288.62l-1,3.35,2.52.14a2.51,2.51,0,0,1,2.1-1c1.54,0,2.24.84,2,2.65s-1.26,2.79-2.93,2.79c-1.4,0-2-.7-1.82-2.1H411.7c-.28,2.93,1.12,4.33,4.19,4.33,3.63-.14,5.59-1.82,6.29-5.17s-.84-4.89-4.05-4.89a4.71,4.71,0,0,0-2.38.7l.7-2.24a3.21,3.21,0,0,0-2.79,1.4" transform="translate(-287.55 -78.57)" fill="#deeafc"/>
    <path id="Path_10" data-name="Path 10" d="M421.86,283.45H415l-1,3.21h0c.14-.14.7-.84,2.65-.84h6.15l.14-.7c.28-1.12-.14-1.68-1.12-1.68" transform="translate(-287.55 -78.57)" fill="#deeafc"/>
    <path id="Path_11" data-name="Path 11" d="M382.88,289.18a1.41,1.41,0,0,1,1.54,1.26h3.07q0-3.77-4.19-3.77c-3.49,0-5.59,2.1-6.29,6.15s.7,6,4.05,6a5.7,5.7,0,0,0,5.59-3.91h-2.1a1.27,1.27,0,0,0-1,.42,2.71,2.71,0,0,1-1.82.84c-1.54,0-2.1-1.12-1.68-3.49s1.4-3.49,2.79-3.49" transform="translate(-287.55 -78.57)" fill="#deeafc"/>
    <path id="Path_12" data-name="Path 12" d="M392.94,284.85c.14-.84-.28-1.54-1.12-1.54h-1.54l-2.38,12.85c-.28,1.26.14,2,1.12,2.1a10.31,10.31,0,0,0,2.93,0l.42-2.24h-.84c-.56,0-.84-.28-.7-.7l1.26-6.43h.28a1.66,1.66,0,0,0,1.68-1.4l.14-.7h-1.68Z" transform="translate(-287.55 -78.57)" fill="#deeafc"/>
    <path id="Path_13" data-name="Path 13" d="M398.53,283.45H397l-.42,2.24h2.79l.14-.84c.28-1-.14-1.4-1-1.4" transform="translate(-287.55 -78.57)" fill="#deeafc"/>
    <path id="Path_14" data-name="Path 14" d="M397.83,286.81h-1.54l-2.24,11.74h2.79l2-10.34c.28-1,0-1.4-1-1.4" transform="translate(-287.55 -78.57)" fill="#deeafc"/>
    <path id="Path_15" data-name="Path 15" d="M407.75,287.79l-3.35,7.13-.7-8.24h-3.07l1.82,11.74h3.07l6.15-11.74h-2.24a2.3,2.3,0,0,0-1.68,1.12" transform="translate(-287.55 -78.57)" fill="#deeafc"/>
    <path id="Path_16" data-name="Path 16" d="M375.33,295.75a25.34,25.34,0,0,0,.42-2.65l.7-3.35c.28-2.24-1-3.21-4.19-3.21-2.65,0-4.33,1.12-5,3.21H370c.28-.56.84-.84,1.82-.84s1.68.28,1.68,1-.84,1-2.1,1.12c-2.93.28-5,1-5.59,3.91-.42,2.65,1.12,3.91,3.91,3.63a9,9,0,0,0,2.93-.7,2.36,2.36,0,0,0,1.68.56h.84s-.42-.14.14-2.65m-5.45.56c-.84,0-1.26-.42-1.12-1.4s.84-1.4,2-1.68a11.8,11.8,0,0,0,2.38-.7l-.14,1.12a3,3,0,0,1-3.07,2.65" transform="translate(-287.55 -78.57)" fill="#deeafc"/>
  </g>
</svg>
